  0
SECTION
  2
HEADER
  9
$ACADVER
  1
AC1009
  9
$INSBASE
 10
0.0
 20
0.0
 30
0.0
  9
$EXTMIN
 10
0.0
 20
0.0
 30
0.0
  9
$EXTMAX
 10
0.0
 20
0.0
 30
0.0
  0
ENDSEC
  0
SECTION
  2
TABLES
  0
TABLE
  2
VPORT
 70
0
  0
ENDTAB
  0
TABLE
  2
LTYPE
 70
1
  0
LTYPE
  2
CONTINUOUS
 70
0
  3
Solid line
 72
65
 73
0
 40
0.0
  0
ENDTAB
  0
TABLE
  2
LAYER
 70
1
  0
LAYER
  2
0
 70
64
 62
7
  6
continuous
  0
ENDTAB
  0
TABLE
  2
STYLE
 70
1
  0
STYLE
  2
STANDARD
 70
0
 40
0
 41
1.0
 50
0.0
 71
0
 42
1
 3
ARIAL.TTF
 4

  0
ENDTAB
  0
TABLE
  2
VIEW
 70
0
  0
ENDTAB
  0
ENDSEC
  0
SECTION
  2
BLOCKS
  0
BLOCK
  8
0
  2
BODY
 70
0
 10
0.0
 20
0.0
 30
0.0
  3
BODY
  0
LINE
  8
0
 62
0
 10
0.0
 20
0.0
 30
0.0
 11
7.5
 21
0.0
 31
0.0
  0
LINE
  8
0
 62
0
 10
7.5
 20
3.0
 30
0.0
 11
7.5
 21
0.0
 31
0.0
  0
LINE
  8
0
 62
0
 10
42.5
 20
0.0
 30
0.0
 11
42.5
 21
3.0
 31
0.0
  0
LINE
  8
0
 62
0
 10
42.5
 20
3.0
 30
0.0
 11
37.5
 21
3.0
 31
0.0
  0
LINE
  8
0
 62
0
 10
37.5
 20
3.0
 30
0.0
 11
37.5
 21
0.0
 31
0.0
  0
LINE
  8
0
 62
0
 10
32.5
 20
0.0
 30
0.0
 11
37.5
 21
0.0
 31
0.0
  0
LINE
  8
0
 62
0
 10
32.5
 20
0.0
 30
0.0
 11
32.5
 21
3.0
 31
0.0
  0
LINE
  8
0
 62
0
 10
32.5
 20
3.0
 30
0.0
 11
27.5
 21
3.0
 31
0.0
  0
LINE
  8
0
 62
0
 10
27.5
 20
3.0
 30
0.0
 11
27.5
 21
0.0
 31
0.0
  0
LINE
  8
0
 62
0
 10
22.5
 20
0.0
 30
0.0
 11
27.5
 21
0.0
 31
0.0
  0
LINE
  8
0
 62
0
 10
22.5
 20
0.0
 30
0.0
 11
22.5
 21
3.0
 31
0.0
  0
LINE
  8
0
 62
0
 10
22.5
 20
3.0
 30
0.0
 11
17.5
 21
3.0
 31
0.0
  0
LINE
  8
0
 62
0
 10
17.5
 20
3.0
 30
0.0
 11
17.5
 21
0.0
 31
0.0
  0
LINE
  8
0
 62
0
 10
12.5
 20
0.0
 30
0.0
 11
17.5
 21
0.0
 31
0.0
  0
LINE
  8
0
 62
0
 10
12.5
 20
0.0
 30
0.0
 11
12.5
 21
3.0
 31
0.0
  0
LINE
  8
0
 62
0
 10
12.5
 20
3.0
 30
0.0
 11
7.5
 21
3.0
 31
0.0
  0
LINE
  8
0
 62
0
 10
0.0
 20
7.5
 30
0.0
 11
0.0
 21
0.0
 31
0.0
  0
LINE
  8
0
 62
0
 10
2.999999999999993
 20
7.5
 30
0.0
 11
-7.105427357601002e-15
 21
7.5
 31
0.0
  0
LINE
  8
0
 62
0
 10
2.999999999999993
 20
12.5
 30
0.0
 11
2.999999999999993
 21
7.5
 31
0.0
  0
LINE
  8
0
 62
0
 10
-7e-15
 20
12.5
 30
0.0
 11
2.999999999999993
 21
12.5
 31
0.0
  0
LINE
  8
0
 62
0
 10
0.0
 20
17.5
 30
0.0
 11
0.0
 21
12.5
 31
0.0
  0
LINE
  8
0
 62
0
 10
2.999999999999994
 20
17.5
 30
0.0
 11
-6.217248937900877e-15
 21
17.5
 31
0.0
  0
LINE
  8
0
 62
0
 10
2.999999999999994
 20
22.5
 30
0.0
 11
2.999999999999994
 21
17.5
 31
0.0
  0
LINE
  8
0
 62
0
 10
-6e-15
 20
22.5
 30
0.0
 11
2.999999999999994
 21
22.5
 31
0.0
  0
LINE
  8
0
 62
0
 10
0.0
 20
27.5
 30
0.0
 11
0.0
 21
22.5
 31
0.0
  0
LINE
  8
0
 62
0
 10
2.999999999999996
 20
27.5
 30
0.0
 11
-3.9968028886505635e-15
 21
27.5
 31
0.0
  0
LINE
  8
0
 62
0
 10
2.999999999999996
 20
32.5
 30
0.0
 11
2.999999999999996
 21
27.5
 31
0.0
  0
LINE
  8
0
 62
0
 10
-4e-15
 20
32.5
 30
0.0
 11
2.999999999999996
 21
32.5
 31
0.0
  0
LINE
  8
0
 62
0
 10
0.0
 20
37.5
 30
0.0
 11
0.0
 21
32.5
 31
0.0
  0
LINE
  8
0
 62
0
 10
2.999999999999997
 20
37.5
 30
0.0
 11
-3.1086244689504383e-15
 21
37.5
 31
0.0
  0
LINE
  8
0
 62
0
 10
2.999999999999997
 20
42.5
 30
0.0
 11
2.999999999999997
 21
37.5
 31
0.0
  0
LINE
  8
0
 62
0
 10
-3e-15
 20
42.5
 30
0.0
 11
2.999999999999997
 21
42.5
 31
0.0
  0
LINE
  8
0
 62
0
 10
0.0
 20
47.5
 30
0.0
 11
0.0
 21
42.5
 31
0.0
  0
LINE
  8
0
 62
0
 10
2.999999999999998
 20
47.5
 30
0.0
 11
-2.220446049250313e-15
 21
47.5
 31
0.0
  0
LINE
  8
0
 62
0
 10
2.999999999999998
 20
52.5
 30
0.0
 11
2.999999999999998
 21
47.5
 31
0.0
  0
LINE
  8
0
 62
0
 10
-2e-15
 20
52.5
 30
0.0
 11
2.999999999999998
 21
52.5
 31
0.0
  0
LINE
  8
0
 62
0
 10
0.0
 20
57.5
 30
0.0
 11
0.0
 21
52.5
 31
0.0
  0
LINE
  8
0
 62
0
 10
2.999999999999999
 20
57.5
 30
0.0
 11
-8.881784197001252e-16
 21
57.5
 31
0.0
  0
LINE
  8
0
 62
0
 10
2.999999999999999
 20
62.5
 30
0.0
 11
2.999999999999999
 21
57.5
 31
0.0
  0
LINE
  8
0
 62
0
 10
-1e-15
 20
62.5
 30
0.0
 11
2.999999999999999
 21
62.5
 31
0.0
  0
LINE
  8
0
 62
0
 10
0.0
 20
67.5
 30
0.0
 11
0.0
 21
62.5
 31
0.0
  0
LINE
  8
0
 62
0
 10
3.0
 20
67.5
 30
0.0
 11
0.0
 21
67.5
 31
0.0
  0
LINE
  8
0
 62
0
 10
3.0
 20
72.5
 30
0.0
 11
3.0
 21
67.5
 31
0.0
  0
LINE
  8
0
 62
0
 10
0.0
 20
72.5
 30
0.0
 11
3.0
 21
72.5
 31
0.0
  0
LINE
  8
0
 62
0
 10
0.0
 20
80.0
 30
0.0
 11
0.0
 21
72.5
 31
0.0
  0
LINE
  8
0
 62
0
 10
7.5
 20
80.0
 30
0.0
 11
0.0
 21
80.0
 31
0.0
  0
LINE
  8
0
 62
0
 10
7.5
 20
77.0
 30
0.0
 11
7.5
 21
80.0
 31
0.0
  0
LINE
  8
0
 62
0
 10
12.5
 20
77.0
 30
0.0
 11
7.5
 21
77.0
 31
0.0
  0
LINE
  8
0
 62
0
 10
12.5
 20
80.0
 30
0.0
 11
12.5
 21
77.0
 31
0.0
  0
LINE
  8
0
 62
0
 10
17.5
 20
80.0
 30
0.0
 11
12.5
 21
80.0
 31
0.0
  0
LINE
  8
0
 62
0
 10
17.5
 20
77.0
 30
0.0
 11
17.5
 21
80.0
 31
0.0
  0
LINE
  8
0
 62
0
 10
22.5
 20
77.0
 30
0.0
 11
17.5
 21
77.0
 31
0.0
  0
LINE
  8
0
 62
0
 10
22.5
 20
80.0
 30
0.0
 11
22.5
 21
77.0
 31
0.0
  0
LINE
  8
0
 62
0
 10
27.5
 20
80.0
 30
0.0
 11
22.5
 21
80.0
 31
0.0
  0
LINE
  8
0
 62
0
 10
27.5
 20
77.0
 30
0.0
 11
27.5
 21
80.0
 31
0.0
  0
LINE
  8
0
 62
0
 10
32.5
 20
77.0
 30
0.0
 11
27.5
 21
77.0
 31
0.0
  0
LINE
  8
0
 62
0
 10
32.5
 20
80.0
 30
0.0
 11
32.5
 21
77.0
 31
0.0
  0
LINE
  8
0
 62
0
 10
37.5
 20
80.0
 30
0.0
 11
32.5
 21
80.0
 31
0.0
  0
LINE
  8
0
 62
0
 10
37.5
 20
77.0
 30
0.0
 11
37.5
 21
80.0
 31
0.0
  0
LINE
  8
0
 62
0
 10
42.5
 20
77.0
 30
0.0
 11
37.5
 21
77.0
 31
0.0
  0
LINE
  8
0
 62
0
 10
42.5
 20
80.0
 30
0.0
 11
42.5
 21
77.0
 31
0.0
  0
LINE
  8
0
 62
0
 10
47.5
 20
80.0
 30
0.0
 11
42.5
 21
80.0
 31
0.0
  0
LINE
  8
0
 62
0
 10
47.5
 20
77.0
 30
0.0
 11
47.5
 21
80.0
 31
0.0
  0
LINE
  8
0
 62
0
 10
52.5
 20
77.0
 30
0.0
 11
47.5
 21
77.0
 31
0.0
  0
LINE
  8
0
 62
0
 10
52.5
 20
80.0
 30
0.0
 11
52.5
 21
77.0
 31
0.0
  0
LINE
  8
0
 62
0
 10
57.5
 20
80.0
 30
0.0
 11
52.5
 21
80.0
 31
0.0
  0
LINE
  8
0
 62
0
 10
57.5
 20
77.0
 30
0.0
 11
57.5
 21
80.0
 31
0.0
  0
LINE
  8
0
 62
0
 10
62.5
 20
77.0
 30
0.0
 11
57.5
 21
77.0
 31
0.0
  0
LINE
  8
0
 62
0
 10
62.5
 20
80.0
 30
0.0
 11
62.5
 21
77.0
 31
0.0
  0
LINE
  8
0
 62
0
 10
67.5
 20
80.0
 30
0.0
 11
62.5
 21
80.0
 31
0.0
  0
LINE
  8
0
 62
0
 10
67.5
 20
77.0
 30
0.0
 11
67.5
 21
80.0
 31
0.0
  0
LINE
  8
0
 62
0
 10
72.5
 20
77.0
 30
0.0
 11
67.5
 21
77.0
 31
0.0
  0
LINE
  8
0
 62
0
 10
72.5
 20
80.0
 30
0.0
 11
72.5
 21
77.0
 31
0.0
  0
LINE
  8
0
 62
0
 10
77.5
 20
80.0
 30
0.0
 11
72.5
 21
80.0
 31
0.0
  0
LINE
  8
0
 62
0
 10
77.5
 20
77.0
 30
0.0
 11
77.5
 21
80.0
 31
0.0
  0
LINE
  8
0
 62
0
 10
82.5
 20
77.0
 30
0.0
 11
77.5
 21
77.0
 31
0.0
  0
LINE
  8
0
 62
0
 10
82.5
 20
80.0
 30
0.0
 11
82.5
 21
77.0
 31
0.0
  0
LINE
  8
0
 62
0
 10
87.5
 20
80.0
 30
0.0
 11
82.5
 21
80.0
 31
0.0
  0
LINE
  8
0
 62
0
 10
87.5
 20
77.0
 30
0.0
 11
87.5
 21
80.0
 31
0.0
  0
LINE
  8
0
 62
0
 10
92.5
 20
77.0
 30
0.0
 11
87.5
 21
77.0
 31
0.0
  0
LINE
  8
0
 62
0
 10
92.5
 20
80.0
 30
0.0
 11
92.5
 21
77.0
 31
0.0
  0
LINE
  8
0
 62
0
 10
97.5
 20
80.0
 30
0.0
 11
92.5
 21
80.0
 31
0.0
  0
LINE
  8
0
 62
0
 10
97.5
 20
77.0
 30
0.0
 11
97.5
 21
80.0
 31
0.0
  0
LINE
  8
0
 62
0
 10
102.5
 20
77.0
 30
0.0
 11
97.5
 21
77.0
 31
0.0
  0
LINE
  8
0
 62
0
 10
102.5
 20
80.0
 30
0.0
 11
102.5
 21
77.0
 31
0.0
  0
LINE
  8
0
 62
0
 10
110.0
 20
80.0
 30
0.0
 11
102.5
 21
80.0
 31
0.0
  0
LINE
  8
0
 62
0
 10
110.0
 20
72.5
 30
0.0
 11
110.0
 21
80.0
 31
0.0
  0
LINE
  8
0
 62
0
 10
110.0
 20
72.5
 30
0.0
 11
107.0
 21
72.5
 31
0.0
  0
LINE
  8
0
 62
0
 10
107.0
 20
72.5
 30
0.0
 11
107.0
 21
67.5
 31
0.0
  0
LINE
  8
0
 62
0
 10
107.0
 20
67.5
 30
0.0
 11
110.0
 21
67.5
 31
0.0
  0
LINE
  8
0
 62
0
 10
110.0
 20
62.5
 30
0.0
 11
110.0
 21
67.5
 31
0.0
  0
LINE
  8
0
 62
0
 10
110.0
 20
62.5
 30
0.0
 11
107.0
 21
62.5
 31
0.0
  0
LINE
  8
0
 62
0
 10
107.0
 20
62.5
 30
0.0
 11
107.0
 21
57.5
 31
0.0
  0
LINE
  8
0
 62
0
 10
107.0
 20
57.5
 30
0.0
 11
110.0
 21
57.5
 31
0.0
  0
LINE
  8
0
 62
0
 10
110.0
 20
52.5
 30
0.0
 11
110.0
 21
57.5
 31
0.0
  0
LINE
  8
0
 62
0
 10
110.0
 20
52.5
 30
0.0
 11
107.0
 21
52.5
 31
0.0
  0
LINE
  8
0
 62
0
 10
107.0
 20
52.5
 30
0.0
 11
107.0
 21
47.5
 31
0.0
  0
LINE
  8
0
 62
0
 10
107.0
 20
47.5
 30
0.0
 11
110.0
 21
47.5
 31
0.0
  0
LINE
  8
0
 62
0
 10
110.0
 20
42.5
 30
0.0
 11
110.0
 21
47.5
 31
0.0
  0
LINE
  8
0
 62
0
 10
110.0
 20
42.5
 30
0.0
 11
107.0
 21
42.5
 31
0.0
  0
LINE
  8
0
 62
0
 10
107.0
 20
42.5
 30
0.0
 11
107.0
 21
37.5
 31
0.0
  0
LINE
  8
0
 62
0
 10
107.0
 20
37.5
 30
0.0
 11
110.0
 21
37.5
 31
0.0
  0
LINE
  8
0
 62
0
 10
110.0
 20
32.5
 30
0.0
 11
110.0
 21
37.5
 31
0.0
  0
LINE
  8
0
 62
0
 10
110.0
 20
32.5
 30
0.0
 11
107.0
 21
32.5
 31
0.0
  0
LINE
  8
0
 62
0
 10
107.0
 20
32.5
 30
0.0
 11
107.0
 21
27.5
 31
0.0
  0
LINE
  8
0
 62
0
 10
107.0
 20
27.5
 30
0.0
 11
110.0
 21
27.5
 31
0.0
  0
LINE
  8
0
 62
0
 10
110.0
 20
22.5
 30
0.0
 11
110.0
 21
27.5
 31
0.0
  0
LINE
  8
0
 62
0
 10
110.0
 20
22.5
 30
0.0
 11
107.0
 21
22.5
 31
0.0
  0
LINE
  8
0
 62
0
 10
107.0
 20
22.5
 30
0.0
 11
107.0
 21
17.5
 31
0.0
  0
LINE
  8
0
 62
0
 10
107.0
 20
17.5
 30
0.0
 11
110.0
 21
17.5
 31
0.0
  0
LINE
  8
0
 62
0
 10
110.0
 20
12.5
 30
0.0
 11
110.0
 21
17.5
 31
0.0
  0
LINE
  8
0
 62
0
 10
110.0
 20
12.5
 30
0.0
 11
107.0
 21
12.5
 31
0.0
  0
LINE
  8
0
 62
0
 10
107.0
 20
12.5
 30
0.0
 11
107.0
 21
7.5
 31
0.0
  0
LINE
  8
0
 62
0
 10
107.0
 20
7.5
 30
0.0
 11
110.0
 21
7.5
 31
0.0
  0
LINE
  8
0
 62
0
 10
110.0
 20
0.0
 30
0.0
 11
110.0
 21
7.5
 31
0.0
  0
LINE
  8
0
 62
0
 10
102.5
 20
0.0
 30
0.0
 11
110.0
 21
0.0
 31
0.0
  0
LINE
  8
0
 62
0
 10
102.5
 20
0.0
 30
0.0
 11
102.5
 21
3.0
 31
0.0
  0
LINE
  8
0
 62
0
 10
102.5
 20
3.0
 30
0.0
 11
97.5
 21
3.0
 31
0.0
  0
LINE
  8
0
 62
0
 10
97.5
 20
3.0
 30
0.0
 11
97.5
 21
0.0
 31
0.0
  0
LINE
  8
0
 62
0
 10
92.5
 20
0.0
 30
0.0
 11
97.5
 21
0.0
 31
0.0
  0
LINE
  8
0
 62
0
 10
92.5
 20
0.0
 30
0.0
 11
92.5
 21
3.0
 31
0.0
  0
LINE
  8
0
 62
0
 10
92.5
 20
3.0
 30
0.0
 11
87.5
 21
3.0
 31
0.0
  0
LINE
  8
0
 62
0
 10
87.5
 20
3.0
 30
0.0
 11
87.5
 21
0.0
 31
0.0
  0
LINE
  8
0
 62
0
 10
82.5
 20
0.0
 30
0.0
 11
87.5
 21
0.0
 31
0.0
  0
LINE
  8
0
 62
0
 10
82.5
 20
0.0
 30
0.0
 11
82.5
 21
3.0
 31
0.0
  0
LINE
  8
0
 62
0
 10
82.5
 20
3.0
 30
0.0
 11
77.5
 21
3.0
 31
0.0
  0
LINE
  8
0
 62
0
 10
77.5
 20
3.0
 30
0.0
 11
77.5
 21
0.0
 31
0.0
  0
LINE
  8
0
 62
0
 10
72.5
 20
0.0
 30
0.0
 11
77.5
 21
0.0
 31
0.0
  0
LINE
  8
0
 62
0
 10
72.5
 20
0.0
 30
0.0
 11
72.5
 21
3.0
 31
0.0
  0
LINE
  8
0
 62
0
 10
72.5
 20
3.0
 30
0.0
 11
67.5
 21
3.0
 31
0.0
  0
LINE
  8
0
 62
0
 10
67.5
 20
3.0
 30
0.0
 11
67.5
 21
0.0
 31
0.0
  0
LINE
  8
0
 62
0
 10
62.5
 20
0.0
 30
0.0
 11
67.5
 21
0.0
 31
0.0
  0
LINE
  8
0
 62
0
 10
62.5
 20
0.0
 30
0.0
 11
62.5
 21
3.0
 31
0.0
  0
LINE
  8
0
 62
0
 10
62.5
 20
3.0
 30
0.0
 11
57.5
 21
3.0
 31
0.0
  0
LINE
  8
0
 62
0
 10
57.5
 20
3.0
 30
0.0
 11
57.5
 21
0.0
 31
0.0
  0
LINE
  8
0
 62
0
 10
52.5
 20
0.0
 30
0.0
 11
57.5
 21
0.0
 31
0.0
  0
LINE
  8
0
 62
0
 10
52.5
 20
0.0
 30
0.0
 11
52.5
 21
3.0
 31
0.0
  0
LINE
  8
0
 62
0
 10
52.5
 20
3.0
 30
0.0
 11
47.5
 21
3.0
 31
0.0
  0
LINE
  8
0
 62
0
 10
47.5
 20
3.0
 30
0.0
 11
47.5
 21
0.0
 31
0.0
  0
LINE
  8
0
 62
0
 10
42.5
 20
0.0
 30
0.0
 11
47.5
 21
0.0
 31
0.0
  0
ENDBLK
  0
ENDSEC
  0
SECTION
  2
ENTITIES
  0
INSERT
  2
BODY
  8
0
 62
0
 10
0.0
 20
0.0
 30
0.0
  0
ENDSEC
  0
EOF
