  0
SECTION
  2
HEADER
  9
$ACADVER
  1
AC1009
  9
$INSBASE
 10
0.0
 20
0.0
 30
0.0
  9
$EXTMIN
 10
0.0
 20
0.0
 30
0.0
  9
$EXTMAX
 10
0.0
 20
0.0
 30
0.0
  0
ENDSEC
  0
SECTION
  2
TABLES
  0
TABLE
  2
VPORT
 70
0
  0
ENDTAB
  0
TABLE
  2
LTYPE
 70
1
  0
LTYPE
  2
CONTINUOUS
 70
0
  3
Solid line
 72
65
 73
0
 40
0.0
  0
ENDTAB
  0
TABLE
  2
LAYER
 70
1
  0
LAYER
  2
0
 70
64
 62
7
  6
continuous
  0
ENDTAB
  0
TABLE
  2
STYLE
 70
1
  0
STYLE
  2
STANDARD
 70
0
 40
0
 41
1.0
 50
0.0
 71
0
 42
1
 3
ARIAL.TTF
 4

  0
ENDTAB
  0
TABLE
  2
VIEW
 70
0
  0
ENDTAB
  0
ENDSEC
  0
SECTION
  2
BLOCKS
  0
BLOCK
  8
0
  2
BODY001
 70
0
 10
0.0
 20
0.0
 30
0.0
  3
BODY001
  0
LINE
  8
0
 62
0
 10
0.0
 20
7.5
 30
0.0
 11
0.0
 21
12.5
 31
0.0
  0
LINE
  8
0
 62
0
 10
0.0
 20
47.5
 30
0.0
 11
3.0
 21
47.5
 31
0.0
  0
LINE
  8
0
 62
0
 10
0.0
 20
47.5
 30
0.0
 11
0.0
 21
52.5
 31
0.0
  0
LINE
  8
0
 62
0
 10
3.0
 20
47.5
 30
0.0
 11
3.0
 21
42.5
 31
0.0
  0
LINE
  8
0
 62
0
 10
3.0
 20
52.5
 30
0.0
 11
0.0
 21
52.5
 31
0.0
  0
LINE
  8
0
 62
0
 10
3.0
 20
42.5
 30
0.0
 11
0.0
 21
42.5
 31
0.0
  0
LINE
  8
0
 62
0
 10
3.0
 20
57.5
 30
0.0
 11
3.0
 21
52.5
 31
0.0
  0
LINE
  8
0
 62
0
 10
0.0
 20
37.5
 30
0.0
 11
0.0
 21
42.5
 31
0.0
  0
LINE
  8
0
 62
0
 10
0.0
 20
57.5
 30
0.0
 11
3.0
 21
57.5
 31
0.0
  0
LINE
  8
0
 62
0
 10
0.0
 20
37.5
 30
0.0
 11
3.0
 21
37.5
 31
0.0
  0
LINE
  8
0
 62
0
 10
0.0
 20
57.5
 30
0.0
 11
0.0
 21
62.5
 31
0.0
  0
LINE
  8
0
 62
0
 10
3.0
 20
37.5
 30
0.0
 11
3.0
 21
32.5
 31
0.0
  0
LINE
  8
0
 62
0
 10
3.0
 20
62.5
 30
0.0
 11
0.0
 21
62.5
 31
0.0
  0
LINE
  8
0
 62
0
 10
3.0
 20
32.5
 30
0.0
 11
0.0
 21
32.5
 31
0.0
  0
LINE
  8
0
 62
0
 10
3.0
 20
67.5
 30
0.0
 11
3.0
 21
62.5
 31
0.0
  0
LINE
  8
0
 62
0
 10
0.0
 20
27.5
 30
0.0
 11
0.0
 21
32.5
 31
0.0
  0
LINE
  8
0
 62
0
 10
0.0
 20
67.5
 30
0.0
 11
3.0
 21
67.5
 31
0.0
  0
LINE
  8
0
 62
0
 10
0.0
 20
27.5
 30
0.0
 11
3.0
 21
27.5
 31
0.0
  0
LINE
  8
0
 62
0
 10
0.0
 20
67.5
 30
0.0
 11
0.0
 21
72.5
 31
0.0
  0
LINE
  8
0
 62
0
 10
3.0
 20
27.5
 30
0.0
 11
3.0
 21
22.5
 31
0.0
  0
LINE
  8
0
 62
0
 10
3.0
 20
72.5
 30
0.0
 11
0.0
 21
72.5
 31
0.0
  0
LINE
  8
0
 62
0
 10
3.0
 20
22.5
 30
0.0
 11
0.0
 21
22.5
 31
0.0
  0
LINE
  8
0
 62
0
 10
3.0
 20
77.5
 30
0.0
 11
3.0
 21
72.5
 31
0.0
  0
LINE
  8
0
 62
0
 10
0.0
 20
17.5
 30
0.0
 11
0.0
 21
22.5
 31
0.0
  0
LINE
  8
0
 62
0
 10
0.0
 20
77.5
 30
0.0
 11
3.0
 21
77.5
 31
0.0
  0
LINE
  8
0
 62
0
 10
0.0
 20
17.5
 30
0.0
 11
3.0
 21
17.5
 31
0.0
  0
LINE
  8
0
 62
0
 10
0.0
 20
77.5
 30
0.0
 11
0.0
 21
82.5
 31
0.0
  0
LINE
  8
0
 62
0
 10
3.0
 20
17.5
 30
0.0
 11
3.0
 21
12.5
 31
0.0
  0
LINE
  8
0
 62
0
 10
3.0
 20
82.5
 30
0.0
 11
0.0
 21
82.5
 31
0.0
  0
LINE
  8
0
 62
0
 10
3.0
 20
12.5
 30
0.0
 11
0.0
 21
12.5
 31
0.0
  0
LINE
  8
0
 62
0
 10
3.0
 20
87.5
 30
0.0
 11
3.0
 21
82.5
 31
0.0
  0
LINE
  8
0
 62
0
 10
0.0
 20
87.5
 30
0.0
 11
3.0
 21
87.5
 31
0.0
  0
LINE
  8
0
 62
0
 10
0.0
 20
7.5
 30
0.0
 11
3.0
 21
7.5
 31
0.0
  0
LINE
  8
0
 62
0
 10
0.0
 20
87.5
 30
0.0
 11
0.0
 21
92.5
 31
0.0
  0
LINE
  8
0
 62
0
 10
3.0
 20
7.5
 30
0.0
 11
3.0
 21
3.0
 31
0.0
  0
LINE
  8
0
 62
0
 10
3.0
 20
92.5
 30
0.0
 11
0.0
 21
92.5
 31
0.0
  0
LINE
  8
0
 62
0
 10
3.0
 20
3.0
 30
0.0
 11
7.5
 21
3.0
 31
0.0
  0
LINE
  8
0
 62
0
 10
3.0
 20
97.5
 30
0.0
 11
3.0
 21
92.5
 31
0.0
  0
LINE
  8
0
 62
0
 10
7.5
 20
3.0
 30
0.0
 11
7.5
 21
0.0
 31
0.0
  0
LINE
  8
0
 62
0
 10
0.0
 20
97.5
 30
0.0
 11
3.0
 21
97.5
 31
0.0
  0
LINE
  8
0
 62
0
 10
12.5
 20
0.0
 30
0.0
 11
7.5
 21
0.0
 31
0.0
  0
LINE
  8
0
 62
0
 10
0.0
 20
97.5
 30
0.0
 11
0.0
 21
102.49999999999915
 31
0.0
  0
LINE
  8
0
 62
0
 10
12.5
 20
3.0
 30
0.0
 11
12.5
 21
0.0
 31
0.0
  0
LINE
  8
0
 62
0
 10
0.0
 20
102.49999999999915
 30
0.0
 11
3.0
 21
102.49999999999915
 31
0.0
  0
LINE
  8
0
 62
0
 10
17.5
 20
3.0
 30
0.0
 11
12.5
 21
3.0
 31
0.0
  0
LINE
  8
0
 62
0
 10
3.0
 20
102.49999999999915
 30
0.0
 11
3.0
 21
106.99999999999915
 31
0.0
  0
LINE
  8
0
 62
0
 10
17.5
 20
0.0
 30
0.0
 11
17.5
 21
3.0
 31
0.0
  0
LINE
  8
0
 62
0
 10
3.0
 20
106.99999999999915
 30
0.0
 11
7.5
 21
106.99999999999915
 31
0.0
  0
LINE
  8
0
 62
0
 10
22.5
 20
0.0
 30
0.0
 11
17.5
 21
0.0
 31
0.0
  0
LINE
  8
0
 62
0
 10
7.5
 20
106.99999999999915
 30
0.0
 11
7.5
 21
109.99999999999915
 31
0.0
  0
LINE
  8
0
 62
0
 10
22.5
 20
3.0
 30
0.0
 11
22.5
 21
0.0
 31
0.0
  0
LINE
  8
0
 62
0
 10
7.5
 20
110.0
 30
0.0
 11
12.5
 21
110.0
 31
0.0
  0
LINE
  8
0
 62
0
 10
27.5
 20
3.0
 30
0.0
 11
22.5
 21
3.0
 31
0.0
  0
LINE
  8
0
 62
0
 10
12.5
 20
107.0
 30
0.0
 11
12.5
 21
110.0
 31
0.0
  0
LINE
  8
0
 62
0
 10
27.5
 20
0.0
 30
0.0
 11
27.5
 21
3.0
 31
0.0
  0
LINE
  8
0
 62
0
 10
17.5
 20
107.0
 30
0.0
 11
12.5
 21
107.0
 31
0.0
  0
LINE
  8
0
 62
0
 10
32.5
 20
0.0
 30
0.0
 11
27.5
 21
0.0
 31
0.0
  0
LINE
  8
0
 62
0
 10
17.5
 20
110.0
 30
0.0
 11
17.5
 21
107.0
 31
0.0
  0
LINE
  8
0
 62
0
 10
32.5
 20
3.0
 30
0.0
 11
32.5
 21
0.0
 31
0.0
  0
LINE
  8
0
 62
0
 10
17.5
 20
110.0
 30
0.0
 11
22.5
 21
110.0
 31
0.0
  0
LINE
  8
0
 62
0
 10
37.5
 20
3.0
 30
0.0
 11
32.5
 21
3.0
 31
0.0
  0
LINE
  8
0
 62
0
 10
22.5
 20
107.0
 30
0.0
 11
22.5
 21
110.0
 31
0.0
  0
LINE
  8
0
 62
0
 10
37.5
 20
0.0
 30
0.0
 11
37.5
 21
3.0
 31
0.0
  0
LINE
  8
0
 62
0
 10
27.5
 20
107.0
 30
0.0
 11
22.5
 21
107.0
 31
0.0
  0
LINE
  8
0
 62
0
 10
42.5
 20
0.0
 30
0.0
 11
37.5
 21
0.0
 31
0.0
  0
LINE
  8
0
 62
0
 10
27.5
 20
110.0
 30
0.0
 11
27.5
 21
107.0
 31
0.0
  0
LINE
  8
0
 62
0
 10
42.5
 20
3.0
 30
0.0
 11
42.5
 21
0.0
 31
0.0
  0
LINE
  8
0
 62
0
 10
27.5
 20
110.0
 30
0.0
 11
32.5
 21
110.0
 31
0.0
  0
LINE
  8
0
 62
0
 10
47.5
 20
3.0
 30
0.0
 11
42.5
 21
3.0
 31
0.0
  0
LINE
  8
0
 62
0
 10
32.5
 20
107.0
 30
0.0
 11
32.5
 21
110.0
 31
0.0
  0
LINE
  8
0
 62
0
 10
47.5
 20
0.0
 30
0.0
 11
47.5
 21
3.0
 31
0.0
  0
LINE
  8
0
 62
0
 10
37.5
 20
107.0
 30
0.0
 11
32.5
 21
107.0
 31
0.0
  0
LINE
  8
0
 62
0
 10
52.5
 20
0.0
 30
0.0
 11
47.5
 21
0.0
 31
0.0
  0
LINE
  8
0
 62
0
 10
37.5
 20
110.0
 30
0.0
 11
37.5
 21
107.0
 31
0.0
  0
LINE
  8
0
 62
0
 10
52.5
 20
3.0
 30
0.0
 11
52.5
 21
0.0
 31
0.0
  0
LINE
  8
0
 62
0
 10
37.5
 20
110.0
 30
0.0
 11
42.5
 21
110.0
 31
0.0
  0
LINE
  8
0
 62
0
 10
57.5
 20
3.0
 30
0.0
 11
52.5
 21
3.0
 31
0.0
  0
LINE
  8
0
 62
0
 10
42.5
 20
107.0
 30
0.0
 11
42.5
 21
110.0
 31
0.0
  0
LINE
  8
0
 62
0
 10
57.5
 20
0.0
 30
0.0
 11
57.5
 21
3.0
 31
0.0
  0
LINE
  8
0
 62
0
 10
47.5
 20
107.0
 30
0.0
 11
42.5
 21
107.0
 31
0.0
  0
LINE
  8
0
 62
0
 10
62.5
 20
0.0
 30
0.0
 11
57.5
 21
0.0
 31
0.0
  0
LINE
  8
0
 62
0
 10
47.5
 20
110.0
 30
0.0
 11
47.5
 21
107.0
 31
0.0
  0
LINE
  8
0
 62
0
 10
62.5
 20
3.0
 30
0.0
 11
62.5
 21
0.0
 31
0.0
  0
LINE
  8
0
 62
0
 10
47.5
 20
110.0
 30
0.0
 11
52.5
 21
110.0
 31
0.0
  0
LINE
  8
0
 62
0
 10
67.5
 20
3.0
 30
0.0
 11
62.5
 21
3.0
 31
0.0
  0
LINE
  8
0
 62
0
 10
52.5
 20
107.0
 30
0.0
 11
52.5
 21
110.0
 31
0.0
  0
LINE
  8
0
 62
0
 10
67.5
 20
0.0
 30
0.0
 11
67.5
 21
3.0
 31
0.0
  0
LINE
  8
0
 62
0
 10
57.5
 20
107.0
 30
0.0
 11
52.5
 21
107.0
 31
0.0
  0
LINE
  8
0
 62
0
 10
72.5
 20
0.0
 30
0.0
 11
67.5
 21
0.0
 31
0.0
  0
LINE
  8
0
 62
0
 10
57.5
 20
110.0
 30
0.0
 11
57.5
 21
107.0
 31
0.0
  0
LINE
  8
0
 62
0
 10
72.5
 20
3.0
 30
0.0
 11
72.5
 21
0.0
 31
0.0
  0
LINE
  8
0
 62
0
 10
57.5
 20
110.0
 30
0.0
 11
62.5
 21
110.0
 31
0.0
  0
LINE
  8
0
 62
0
 10
77.0
 20
3.0
 30
0.0
 11
72.5
 21
3.0
 31
0.0
  0
LINE
  8
0
 62
0
 10
62.5
 20
107.0
 30
0.0
 11
62.5
 21
110.0
 31
0.0
  0
LINE
  8
0
 62
0
 10
77.0
 20
7.5
 30
0.0
 11
77.0
 21
3.0
 31
0.0
  0
LINE
  8
0
 62
0
 10
67.5
 20
107.0
 30
0.0
 11
62.5
 21
107.0
 31
0.0
  0
LINE
  8
0
 62
0
 10
80.0
 20
7.5
 30
0.0
 11
77.0
 21
7.5
 31
0.0
  0
LINE
  8
0
 62
0
 10
67.5
 20
110.0
 30
0.0
 11
67.5
 21
107.0
 31
0.0
  0
LINE
  8
0
 62
0
 10
80.0
 20
12.5
 30
0.0
 11
80.0
 21
7.5
 31
0.0
  0
LINE
  8
0
 62
0
 10
67.5
 20
110.0
 30
0.0
 11
72.5
 21
110.0
 31
0.0
  0
LINE
  8
0
 62
0
 10
77.0
 20
12.5
 30
0.0
 11
80.0
 21
12.5
 31
0.0
  0
LINE
  8
0
 62
0
 10
72.5
 20
106.99999999999915
 30
0.0
 11
72.5
 21
109.99999999999915
 31
0.0
  0
LINE
  8
0
 62
0
 10
77.0
 20
17.5
 30
0.0
 11
77.0
 21
12.5
 31
0.0
  0
LINE
  8
0
 62
0
 10
77.0
 20
106.99999999999915
 30
0.0
 11
72.5
 21
106.99999999999915
 31
0.0
  0
LINE
  8
0
 62
0
 10
80.0
 20
17.5
 30
0.0
 11
77.0
 21
17.5
 31
0.0
  0
LINE
  8
0
 62
0
 10
77.0
 20
102.49999999999915
 30
0.0
 11
77.0
 21
106.99999999999915
 31
0.0
  0
LINE
  8
0
 62
0
 10
80.0
 20
22.5
 30
0.0
 11
80.0
 21
17.5
 31
0.0
  0
LINE
  8
0
 62
0
 10
80.0
 20
102.49999999999915
 30
0.0
 11
77.0
 21
102.49999999999915
 31
0.0
  0
LINE
  8
0
 62
0
 10
77.0
 20
22.5
 30
0.0
 11
80.0
 21
22.5
 31
0.0
  0
LINE
  8
0
 62
0
 10
80.0
 20
102.49999999999915
 30
0.0
 11
80.0
 21
97.5
 31
0.0
  0
LINE
  8
0
 62
0
 10
77.0
 20
27.5
 30
0.0
 11
77.0
 21
22.5
 31
0.0
  0
LINE
  8
0
 62
0
 10
80.0
 20
97.5
 30
0.0
 11
77.0
 21
97.5
 31
0.0
  0
LINE
  8
0
 62
0
 10
80.0
 20
27.5
 30
0.0
 11
77.0
 21
27.5
 31
0.0
  0
LINE
  8
0
 62
0
 10
77.0
 20
97.5
 30
0.0
 11
77.0
 21
92.5
 31
0.0
  0
LINE
  8
0
 62
0
 10
80.0
 20
32.5
 30
0.0
 11
80.0
 21
27.5
 31
0.0
  0
LINE
  8
0
 62
0
 10
77.0
 20
92.5
 30
0.0
 11
80.0
 21
92.5
 31
0.0
  0
LINE
  8
0
 62
0
 10
77.0
 20
32.5
 30
0.0
 11
80.0
 21
32.5
 31
0.0
  0
LINE
  8
0
 62
0
 10
80.0
 20
92.5
 30
0.0
 11
80.0
 21
87.5
 31
0.0
  0
LINE
  8
0
 62
0
 10
77.0
 20
37.5
 30
0.0
 11
77.0
 21
32.5
 31
0.0
  0
LINE
  8
0
 62
0
 10
80.0
 20
87.5
 30
0.0
 11
77.0
 21
87.5
 31
0.0
  0
LINE
  8
0
 62
0
 10
80.0
 20
37.5
 30
0.0
 11
77.0
 21
37.5
 31
0.0
  0
LINE
  8
0
 62
0
 10
77.0
 20
87.5
 30
0.0
 11
77.0
 21
82.5
 31
0.0
  0
LINE
  8
0
 62
0
 10
80.0
 20
42.5
 30
0.0
 11
80.0
 21
37.5
 31
0.0
  0
LINE
  8
0
 62
0
 10
77.0
 20
82.5
 30
0.0
 11
80.0
 21
82.5
 31
0.0
  0
LINE
  8
0
 62
0
 10
77.0
 20
42.5
 30
0.0
 11
80.0
 21
42.5
 31
0.0
  0
LINE
  8
0
 62
0
 10
80.0
 20
82.5
 30
0.0
 11
80.0
 21
77.5
 31
0.0
  0
LINE
  8
0
 62
0
 10
77.0
 20
47.5
 30
0.0
 11
77.0
 21
42.5
 31
0.0
  0
LINE
  8
0
 62
0
 10
80.0
 20
77.5
 30
0.0
 11
77.0
 21
77.5
 31
0.0
  0
LINE
  8
0
 62
0
 10
80.0
 20
47.5
 30
0.0
 11
77.0
 21
47.5
 31
0.0
  0
LINE
  8
0
 62
0
 10
77.0
 20
77.5
 30
0.0
 11
77.0
 21
72.5
 31
0.0
  0
LINE
  8
0
 62
0
 10
80.0
 20
52.5
 30
0.0
 11
80.0
 21
47.5
 31
0.0
  0
LINE
  8
0
 62
0
 10
77.0
 20
72.5
 30
0.0
 11
80.0
 21
72.5
 31
0.0
  0
LINE
  8
0
 62
0
 10
77.0
 20
52.5
 30
0.0
 11
80.0
 21
52.5
 31
0.0
  0
LINE
  8
0
 62
0
 10
80.0
 20
72.5
 30
0.0
 11
80.0
 21
67.5
 31
0.0
  0
LINE
  8
0
 62
0
 10
77.0
 20
57.5
 30
0.0
 11
77.0
 21
52.5
 31
0.0
  0
LINE
  8
0
 62
0
 10
80.0
 20
67.5
 30
0.0
 11
77.0
 21
67.5
 31
0.0
  0
LINE
  8
0
 62
0
 10
80.0
 20
57.5
 30
0.0
 11
77.0
 21
57.5
 31
0.0
  0
LINE
  8
0
 62
0
 10
77.0
 20
67.5
 30
0.0
 11
77.0
 21
62.5
 31
0.0
  0
LINE
  8
0
 62
0
 10
80.0
 20
62.5
 30
0.0
 11
80.0
 21
57.5
 31
0.0
  0
LINE
  8
0
 62
0
 10
77.0
 20
62.5
 30
0.0
 11
80.0
 21
62.5
 31
0.0
  0
LINE
  8
0
 62
0
 10
28.0
 20
25.0
 30
0.0
 11
38.0
 21
25.0
 31
0.0
  0
LINE
  8
0
 62
0
 10
28.0
 20
28.0
 30
0.0
 11
28.0
 21
25.0
 31
0.0
  0
LINE
  8
0
 62
0
 10
38.0
 20
28.0
 30
0.0
 11
28.0
 21
28.0
 31
0.0
  0
LINE
  8
0
 62
0
 10
38.0
 20
25.0
 30
0.0
 11
38.0
 21
28.0
 31
0.0
  0
ENDBLK
  0
ENDSEC
  0
SECTION
  2
ENTITIES
  0
INSERT
  2
BODY001
  8
0
 62
0
 10
0.0
 20
0.0
 30
0.0
  0
ENDSEC
  0
EOF
